<?xml version="1.0" encoding="iso-8859-1"?>
<!-- Uploaded to: SVG Repo, www.svgrepo.com, Generator: SVG Repo Mixer Tools -->
<svg fill="#000000" height="800px" width="800px" version="1.1" id="Layer_1" xmlns="http://www.w3.org/2000/svg" xmlns:xlink="http://www.w3.org/1999/xlink" 
	 viewBox="0 0 455 455" xml:space="preserve">
<g>
	<path d="M340.57,254.053c-54.826,0-99.429,44.604-99.429,99.43s44.604,99.43,99.429,99.43S440,408.308,440,353.482
		S395.396,254.053,340.57,254.053z M402.07,368.482h-46.5v46.5h-30v-46.5h-46.5v-30h46.5v-46.5h30v46.5h46.5V368.482z"/>
	<path d="M387.657,122.734L261.909,2.088l-20.77,21.648l103.185,98.999H110.273L211.99,23.657l-20.933-21.49L67.277,122.734H0v30
		h33.296l28.572,183.831c2.656,17.091,18.981,31.074,36.276,31.074h113.775c-0.508-4.651-0.777-9.372-0.777-14.156
		c0-71.368,58.062-129.43,129.429-129.43c24.222,0,46.906,6.694,66.313,18.321l14.693-89.639H455v-30H387.657z"/>
</g>
</svg>