<svg height="800" width="800" xmlns="http://www.w3.org/2000/svg" viewBox="0 0 455.297 455.297" xml:space="preserve"><circle cx="65.993" cy="417.586" r="35"/><path d="M323.058 183.727c-54.826 0-99.43 44.604-99.43 99.429s44.604 99.429 99.43 99.429 99.43-44.604 99.43-99.429-44.604-99.429-99.43-99.429zm0 152.143-65.606-65.606 21.213-21.213 44.394 44.394 44.394-44.394 21.213 21.213-65.608 65.606zM30.993 322.586v30h182.879a128.868 128.868 0 0 1-14.094-30H30.993zM323.058 412.586a129.111 129.111 0 0 1-35.062-4.829 34.955 34.955 0 0 0-1.403 9.829c0 19.33 15.67 35 35 35s35-15.67 35-35c0-3.145-.421-6.19-1.2-9.089a129.212 129.212 0 0 1-32.335 4.089z"/><path d="m393.673 2.711-12.294 75H0l25.888 158.454c2.833 17.282 19.479 31.422 36.992 31.422h131.688c7.715-64.052 62.392-113.859 128.49-113.859 26.887 0 51.883 8.244 72.6 22.332l23.497-143.349h36.141v-30h-61.623z"/></svg>