<svg height="800" width="800" xmlns="http://www.w3.org/2000/svg" viewBox="0 0 455 455" xml:space="preserve"><path d="M340.57 254.053c-54.826 0-99.429 44.604-99.429 99.43s44.604 99.43 99.429 99.43S440 408.308 440 353.482s-44.604-99.429-99.43-99.429zm61.5 114.429h-46.5v46.5h-30v-46.5h-46.5v-30h46.5v-46.5h30v46.5h46.5v30z"/><path d="M387.657 122.734 261.909 2.088l-20.77 21.648 103.185 98.999H110.273L211.99 23.657l-20.933-21.49-123.78 120.567H0v30h33.296l28.572 183.831c2.656 17.091 18.981 31.074 36.276 31.074h113.775a130.307 130.307 0 0 1-.777-14.156c0-71.368 58.062-129.43 129.429-129.43 24.222 0 46.906 6.694 66.313 18.321l14.693-89.639H455v-30h-67.343z"/></svg>